<svg width="967" height="235" viewBox="0 0 967 235" fill="none" xmlns="http://www.w3.org/2000/svg">
<mask id="path-1-outside-1_182_365" maskUnits="userSpaceOnUse" x="-5" y="-5" width="977" height="245" fill="black">
<rect fill="white" x="-5" y="-5" width="977" height="245"/>
<path d="M58.5938 88.5156H102.539C112.305 88.5156 117.188 83.6328 117.188 73.8672C117.188 64.1016 112.305 59.2188 102.539 59.2188H58.5938V88.5156ZM0 0.625H102.539C151.367 0.625 175.781 25.0391 175.781 73.8672C175.781 91.8359 172.461 106.484 165.82 117.812C172.461 129.141 175.781 143.789 175.781 161.758C175.781 210.586 151.367 235 102.539 235H0V0.625ZM58.5938 147.109V176.406H102.539C112.305 176.406 117.188 171.523 117.188 161.758C117.188 151.992 112.305 147.109 102.539 147.109H58.5938ZM307.178 147.109L292.969 94.2285L278.76 147.109H307.178ZM322.852 205.703H263.086L255.176 235H194.678L257.52 0.625H328.418L391.26 235H330.762L322.852 205.703ZM517.969 0.625H583.74L523.682 117.812L583.74 235H517.969L468.75 139.053V235H410.156V0.625H468.75V96.5723L517.969 0.625ZM659.18 176.406H761.719V235H600.586V0.625H761.719V59.2188H659.18V88.5156H747.07V147.109H659.18V176.406ZM791.016 0.625H893.555C942.383 0.625 966.797 25.0391 966.797 73.8672V161.758C966.797 210.586 942.383 235 893.555 235H791.016V0.625ZM849.609 59.2188V176.406H893.555C903.32 176.406 908.203 171.523 908.203 161.758V73.8672C908.203 64.1016 903.32 59.2188 893.555 59.2188H849.609Z"/>
</mask>
<path d="M58.5938 88.5156H53.5938V93.5156H58.5938V88.5156ZM58.5938 59.2188V54.2188H53.5938V59.2188H58.5938ZM0 0.625V-4.375H-5V0.625H0ZM165.82 117.812L161.507 115.284L160.025 117.812L161.507 120.341L165.82 117.812ZM0 235H-5V240H0V235ZM58.5938 147.109V142.109H53.5938V147.109H58.5938ZM58.5938 176.406H53.5938V181.406H58.5938V176.406ZM58.5938 93.5156H102.539V83.5156H58.5938V93.5156ZM102.539 93.5156C108.193 93.5156 113.351 92.0989 117.061 88.3891C120.771 84.6792 122.188 79.5207 122.188 73.8672H112.188C112.188 77.9793 111.163 80.145 109.99 81.318C108.817 82.491 106.651 83.5156 102.539 83.5156V93.5156ZM122.188 73.8672C122.188 68.2137 120.771 63.0551 117.061 59.3453C113.351 55.6355 108.193 54.2188 102.539 54.2188V64.2188C106.651 64.2188 108.817 65.2434 109.99 66.4164C111.163 67.5894 112.188 69.7551 112.188 73.8672H122.188ZM102.539 54.2188H58.5938V64.2188H102.539V54.2188ZM53.5938 59.2188V88.5156H63.5938V59.2188H53.5938ZM0 5.625H102.539V-4.375H0V5.625ZM102.539 5.625C126.182 5.625 142.997 11.5324 153.935 22.4711C164.874 33.4097 170.781 50.2238 170.781 73.8672H180.781C180.781 48.6824 174.482 28.8754 161.006 15.4C147.531 1.92458 127.724 -4.375 102.539 -4.375V5.625ZM170.781 73.8672C170.781 91.2612 167.562 104.955 161.507 115.284L170.134 120.341C177.36 108.014 180.781 92.4107 180.781 73.8672H170.781ZM161.507 120.341C167.562 130.67 170.781 144.364 170.781 161.758H180.781C180.781 143.214 177.36 127.611 170.134 115.284L161.507 120.341ZM170.781 161.758C170.781 185.401 164.874 202.215 153.935 213.154C142.997 224.093 126.182 230 102.539 230V240C127.724 240 147.531 233.7 161.006 220.225C174.482 206.75 180.781 186.943 180.781 161.758H170.781ZM102.539 230H0V240H102.539V230ZM5 235V0.625H-5V235H5ZM53.5938 147.109V176.406H63.5938V147.109H53.5938ZM58.5938 181.406H102.539V171.406H58.5938V181.406ZM102.539 181.406C108.193 181.406 113.351 179.989 117.061 176.28C120.771 172.57 122.188 167.411 122.188 161.758H112.188C112.188 165.87 111.163 168.036 109.99 169.209C108.817 170.382 106.651 171.406 102.539 171.406V181.406ZM122.188 161.758C122.188 156.104 120.771 150.946 117.061 147.236C113.351 143.526 108.193 142.109 102.539 142.109V152.109C106.651 152.109 108.817 153.134 109.99 154.307C111.163 155.48 112.188 157.646 112.188 161.758H122.188ZM102.539 142.109H58.5938V152.109H102.539V142.109ZM307.178 147.109V152.109H313.699L312.006 145.812L307.178 147.109ZM292.969 94.2285L297.797 92.931L292.969 74.9602L288.14 92.931L292.969 94.2285ZM278.76 147.109L273.931 145.812L272.239 152.109H278.76V147.109ZM322.852 205.703L327.679 204.4L326.681 200.703H322.852V205.703ZM263.086 205.703V200.703H259.257L258.259 204.4L263.086 205.703ZM255.176 235V240H259.005L260.003 236.303L255.176 235ZM194.678 235L189.848 233.705L188.161 240H194.678V235ZM257.52 0.625V-4.375H253.684L252.69 -0.669888L257.52 0.625ZM328.418 0.625L333.247 -0.669888L332.254 -4.375H328.418V0.625ZM391.26 235V240H397.777L396.089 233.705L391.26 235ZM330.762 235L325.935 236.303L326.933 240H330.762V235ZM312.006 145.812L297.797 92.931L288.14 95.526L302.349 148.407L312.006 145.812ZM288.14 92.931L273.931 145.812L283.589 148.407L297.797 95.526L288.14 92.931ZM278.76 152.109H307.178V142.109H278.76V152.109ZM322.852 200.703H263.086V210.703H322.852V200.703ZM258.259 204.4L250.349 233.697L260.003 236.303L267.913 207.006L258.259 204.4ZM255.176 230H194.678V240H255.176V230ZM199.507 236.295L262.349 1.91989L252.69 -0.669888L189.848 233.705L199.507 236.295ZM257.52 5.625H328.418V-4.375H257.52V5.625ZM323.589 1.91989L386.43 236.295L396.089 233.705L333.247 -0.669888L323.589 1.91989ZM391.26 230H330.762V240H391.26V230ZM335.589 233.697L327.679 204.4L318.024 207.006L325.935 236.303L335.589 233.697ZM517.969 0.625V-4.375H514.914L513.52 -1.65714L517.969 0.625ZM583.74 0.625L588.19 2.90545L591.921 -4.375H583.74V0.625ZM523.682 117.812L519.232 115.532L518.063 117.812L519.232 120.093L523.682 117.812ZM583.74 235V240H591.921L588.19 232.72L583.74 235ZM517.969 235L513.52 237.282L514.914 240H517.969V235ZM468.75 139.053L473.199 136.771L463.75 139.053H468.75ZM468.75 235V240H473.75V235H468.75ZM410.156 235H405.156V240H410.156V235ZM410.156 0.625V-4.375H405.156V0.625H410.156ZM468.75 0.625H473.75V-4.375H468.75V0.625ZM468.75 96.5723H463.75L473.199 98.8544L468.75 96.5723ZM517.969 5.625H583.74V-4.375H517.969V5.625ZM579.291 -1.65545L519.232 115.532L528.131 120.093L588.19 2.90545L579.291 -1.65545ZM519.232 120.093L579.291 237.28L588.19 232.72L528.131 115.532L519.232 120.093ZM583.74 230H517.969V240H583.74V230ZM522.418 232.718L473.199 136.771L464.301 141.335L513.52 237.282L522.418 232.718ZM463.75 139.053V235H473.75V139.053H463.75ZM468.75 230H410.156V240H468.75V230ZM415.156 235V0.625H405.156V235H415.156ZM410.156 5.625H468.75V-4.375H410.156V5.625ZM463.75 0.625V96.5723H473.75V0.625H463.75ZM473.199 98.8544L522.418 2.90714L513.52 -1.65714L464.301 94.2901L473.199 98.8544ZM659.18 176.406H654.18V181.406H659.18V176.406ZM761.719 176.406H766.719V171.406H761.719V176.406ZM761.719 235V240H766.719V235H761.719ZM600.586 235H595.586V240H600.586V235ZM600.586 0.625V-4.375H595.586V0.625H600.586ZM761.719 0.625H766.719V-4.375H761.719V0.625ZM761.719 59.2188V64.2188H766.719V59.2188H761.719ZM659.18 59.2188V54.2188H654.18V59.2188H659.18ZM659.18 88.5156H654.18V93.5156H659.18V88.5156ZM747.07 88.5156H752.07V83.5156H747.07V88.5156ZM747.07 147.109V152.109H752.07V147.109H747.07ZM659.18 147.109V142.109H654.18V147.109H659.18ZM659.18 181.406H761.719V171.406H659.18V181.406ZM756.719 176.406V235H766.719V176.406H756.719ZM761.719 230H600.586V240H761.719V230ZM605.586 235V0.625H595.586V235H605.586ZM600.586 5.625H761.719V-4.375H600.586V5.625ZM756.719 0.625V59.2188H766.719V0.625H756.719ZM761.719 54.2188H659.18V64.2188H761.719V54.2188ZM654.18 59.2188V88.5156H664.18V59.2188H654.18ZM659.18 93.5156H747.07V83.5156H659.18V93.5156ZM742.07 88.5156V147.109H752.07V88.5156H742.07ZM747.07 142.109H659.18V152.109H747.07V142.109ZM654.18 147.109V176.406H664.18V147.109H654.18ZM791.016 0.625V-4.375H786.016V0.625H791.016ZM791.016 235H786.016V240H791.016V235ZM849.609 59.2188V54.2188H844.609V59.2188H849.609ZM849.609 176.406H844.609V181.406H849.609V176.406ZM791.016 5.625H893.555V-4.375H791.016V5.625ZM893.555 5.625C917.198 5.625 934.012 11.5324 944.951 22.4711C955.889 33.4097 961.797 50.2238 961.797 73.8672H971.797C971.797 48.6824 965.497 28.8754 952.022 15.4C938.546 1.92458 918.74 -4.375 893.555 -4.375V5.625ZM961.797 73.8672V161.758H971.797V73.8672H961.797ZM961.797 161.758C961.797 185.401 955.889 202.215 944.951 213.154C934.012 224.093 917.198 230 893.555 230V240C918.74 240 938.546 233.7 952.022 220.225C965.497 206.75 971.797 186.943 971.797 161.758H961.797ZM893.555 230H791.016V240H893.555V230ZM796.016 235V0.625H786.016V235H796.016ZM844.609 59.2188V176.406H854.609V59.2188H844.609ZM849.609 181.406H893.555V171.406H849.609V181.406ZM893.555 181.406C899.208 181.406 904.367 179.989 908.077 176.28C911.786 172.57 913.203 167.411 913.203 161.758H903.203C903.203 165.87 902.178 168.036 901.005 169.209C899.832 170.382 897.667 171.406 893.555 171.406V181.406ZM913.203 161.758V73.8672H903.203V161.758H913.203ZM913.203 73.8672C913.203 68.2137 911.786 63.0551 908.077 59.3453C904.367 55.6355 899.208 54.2188 893.555 54.2188V64.2188C897.667 64.2188 899.832 65.2434 901.005 66.4164C902.178 67.5894 903.203 69.7551 903.203 73.8672H913.203ZM893.555 54.2188H849.609V64.2188H893.555V54.2188Z" fill="#EE5564" mask="url(#path-1-outside-1_182_365)"/>
</svg>
