<svg width="1377" height="235" viewBox="0 0 1377 235" fill="none" xmlns="http://www.w3.org/2000/svg">
<path d="M58.5938 88.5156H102.539C112.305 88.5156 117.188 83.6328 117.188 73.8672C117.188 64.1016 112.305 59.2188 102.539 59.2188H58.5938V88.5156ZM0 0.625H102.539C151.367 0.625 175.781 25.0391 175.781 73.8672C175.781 91.8359 172.461 106.484 165.82 117.812C172.461 129.141 175.781 143.789 175.781 161.758C175.781 210.586 151.367 235 102.539 235H0V0.625ZM58.5938 147.109V176.406H102.539C112.305 176.406 117.188 171.523 117.188 161.758C117.188 151.992 112.305 147.109 102.539 147.109H58.5938ZM263.672 235H205.078V0.625H263.672V235ZM395.508 0.625C444.336 0.625 468.75 25.0391 468.75 73.8672H410.156C410.156 64.1016 405.273 59.2188 395.508 59.2188H366.211C356.445 59.2188 351.562 64.1016 351.562 73.8672C351.562 83.6328 356.445 88.5156 366.211 88.5156H395.508C444.336 88.5156 468.75 112.93 468.75 161.758C468.75 210.586 444.336 235 395.508 235H366.211C317.383 235 292.969 210.586 292.969 161.758H351.562C351.562 171.523 356.445 176.406 366.211 176.406H395.508C405.273 176.406 410.156 171.523 410.156 161.758C410.156 151.992 405.273 147.109 395.508 147.109H366.211C317.383 147.109 292.969 122.695 292.969 73.8672C292.969 25.0391 317.383 0.625 366.211 0.625H395.508ZM673.828 73.8672V88.5156H615.234V73.8672C615.234 64.1016 610.352 59.2188 600.586 59.2188H571.289C561.523 59.2188 556.641 64.1016 556.641 73.8672V161.758C556.641 171.523 561.523 176.406 571.289 176.406H600.586C610.352 176.406 615.234 171.523 615.234 161.758V147.109H673.828V161.758C673.828 210.586 649.414 235 600.586 235H571.289C522.461 235 498.047 210.586 498.047 161.758V73.8672C498.047 25.0391 522.461 0.625 571.289 0.625H600.586C649.414 0.625 673.828 25.0391 673.828 73.8672ZM820.312 161.758V0.625H878.906V161.758C878.906 210.586 854.492 235 805.664 235H776.367C727.539 235 703.125 210.586 703.125 161.758V0.625H761.719V161.758C761.719 171.523 766.602 176.406 776.367 176.406H805.664C815.43 176.406 820.312 171.523 820.312 161.758ZM966.797 235H908.203V0.625H966.797V235ZM1113.28 59.2188V235H1054.69V59.2188H996.094V0.625H1171.88V59.2188H1113.28ZM1303.71 0.625C1352.54 0.625 1376.95 25.0391 1376.95 73.8672H1318.36C1318.36 64.1016 1313.48 59.2188 1303.71 59.2188H1274.41C1264.65 59.2188 1259.77 64.1016 1259.77 73.8672C1259.77 83.6328 1264.65 88.5156 1274.41 88.5156H1303.71C1352.54 88.5156 1376.95 112.93 1376.95 161.758C1376.95 210.586 1352.54 235 1303.71 235H1274.41C1225.59 235 1201.17 210.586 1201.17 161.758H1259.77C1259.77 171.523 1264.65 176.406 1274.41 176.406H1303.71C1313.48 176.406 1318.36 171.523 1318.36 161.758C1318.36 151.992 1313.48 147.109 1303.71 147.109H1274.41C1225.59 147.109 1201.17 122.695 1201.17 73.8672C1201.17 25.0391 1225.59 0.625 1274.41 0.625H1303.71Z" fill="white"/>
</svg>
