<svg width="1260" height="235" viewBox="0 0 1260 235" fill="none" xmlns="http://www.w3.org/2000/svg">
<path d="M175.781 73.8672V88.5156H117.188V73.8672C117.188 64.1016 112.305 59.2188 102.539 59.2188H73.2422C63.4766 59.2188 58.5938 64.1016 58.5938 73.8672V161.758C58.5938 171.523 63.4766 176.406 73.2422 176.406H102.539C112.305 176.406 117.188 171.523 117.188 161.758V147.109H175.781V161.758C175.781 210.586 151.367 235 102.539 235H73.2422C24.4141 235 0 210.586 0 161.758V73.8672C0 25.0391 24.4141 0.625 73.2422 0.625H102.539C151.367 0.625 175.781 25.0391 175.781 73.8672ZM322.266 73.8672C322.266 64.1016 317.383 59.2188 307.617 59.2188H278.32C268.555 59.2188 263.672 64.1016 263.672 73.8672V161.758C263.672 171.523 268.555 176.406 278.32 176.406H307.617C317.383 176.406 322.266 171.523 322.266 161.758V73.8672ZM307.617 0.625C356.445 0.625 380.859 25.0391 380.859 73.8672V161.758C380.859 210.586 356.445 235 307.617 235H278.32C229.492 235 205.078 210.586 205.078 161.758V73.8672C205.078 25.0391 229.492 0.625 278.32 0.625H307.617ZM527.344 73.8672C527.344 64.1016 522.461 59.2188 512.695 59.2188H483.398C473.633 59.2188 468.75 64.1016 468.75 73.8672V161.758C468.75 171.523 473.633 176.406 483.398 176.406H512.695C522.461 176.406 527.344 171.523 527.344 161.758V73.8672ZM512.695 0.625C561.523 0.625 585.938 25.0391 585.938 73.8672V161.758C585.938 210.586 561.523 235 512.695 235H483.398C434.57 235 410.156 210.586 410.156 161.758V73.8672C410.156 25.0391 434.57 0.625 483.398 0.625H512.695ZM723.047 0.625H788.818L728.76 117.812L788.818 235H723.047L673.828 139.053V235H615.234V0.625H673.828V96.5723L723.047 0.625ZM864.258 235H805.664V0.625H864.258V235ZM952.148 176.406H1054.69V235H893.555V0.625H1054.69V59.2188H952.148V88.5156H1040.04V147.109H952.148V176.406ZM1186.52 0.625C1235.35 0.625 1259.77 25.0391 1259.77 73.8672H1201.17C1201.17 64.1016 1196.29 59.2188 1186.52 59.2188H1157.23C1147.46 59.2188 1142.58 64.1016 1142.58 73.8672C1142.58 83.6328 1147.46 88.5156 1157.23 88.5156H1186.52C1235.35 88.5156 1259.77 112.93 1259.77 161.758C1259.77 210.586 1235.35 235 1186.52 235H1157.23C1108.4 235 1083.98 210.586 1083.98 161.758H1142.58C1142.58 171.523 1147.46 176.406 1157.23 176.406H1186.52C1196.29 176.406 1201.17 171.523 1201.17 161.758C1201.17 151.992 1196.29 147.109 1186.52 147.109H1157.23C1108.4 147.109 1083.98 122.695 1083.98 73.8672C1083.98 25.0391 1108.4 0.625 1157.23 0.625H1186.52Z" fill="white"/>
</svg>
