<svg width="1680" height="313" viewBox="0 0 1680 313" fill="none" xmlns="http://www.w3.org/2000/svg">
<path d="M0 0.5H136.719C201.823 0.5 234.375 33.0521 234.375 98.1562V215.344C234.375 280.448 201.823 313 136.719 313H0V0.5ZM78.125 78.625V234.875H136.719C149.74 234.875 156.25 228.365 156.25 215.344V98.1562C156.25 85.1354 149.74 78.625 136.719 78.625H78.125ZM351.562 234.875H488.281V313H273.438V0.5H488.281V78.625H351.562V117.688H468.75V195.812H351.562V234.875ZM527.344 0.5H605.469V234.875H742.188V313H527.344V0.5ZM859.375 313H781.25V0.5H859.375V313ZM1035.16 0.5C1100.26 0.5 1132.81 33.0521 1132.81 98.1562H1054.69C1054.69 85.1354 1048.18 78.625 1035.16 78.625H996.094C983.073 78.625 976.562 85.1354 976.562 98.1562V215.344C976.562 228.365 983.073 234.875 996.094 234.875H1035.16C1048.18 234.875 1054.69 228.365 1054.69 215.344V195.812H1015.62V117.688H1132.81V215.344C1132.81 280.448 1100.26 313 1035.16 313H996.094C930.99 313 898.438 280.448 898.438 215.344V98.1562C898.438 33.0521 930.99 0.5 996.094 0.5H1035.16ZM1250 195.812V313H1171.88V0.5H1250V117.688H1328.12V0.5H1406.25V313H1328.12V195.812H1250ZM1601.56 78.625V313H1523.44V78.625H1445.31V0.5H1679.69V78.625H1601.56Z" fill="#EE5564"/>
</svg>
