<svg width="1764" height="313" viewBox="0 0 1764 313" fill="none" xmlns="http://www.w3.org/2000/svg">
<mask id="path-1-outside-1_182_277" maskUnits="userSpaceOnUse" x="-5" y="-5" width="1777" height="323" fill="black">
<rect fill="white" x="-5" y="-5" width="1777" height="323"/>
<path d="M214.844 0.5V78.625H78.125V117.688H195.312V195.812H78.125V313H0V0.5H214.844ZM253.906 0.5H390.625C455.729 0.5 488.281 33.0521 488.281 98.1562C488.281 148.026 469.206 178.755 431.055 190.344L501.953 313H411.719L343.945 195.812H332.031V313H253.906V0.5ZM332.031 78.625V117.688H390.625C403.646 117.688 410.156 111.177 410.156 98.1562C410.156 85.1354 403.646 78.625 390.625 78.625H332.031ZM605.469 234.875H742.188V313H527.344V0.5H742.188V78.625H605.469V117.688H722.656V195.812H605.469V234.875ZM917.969 0.5C983.073 0.5 1015.62 33.0521 1015.62 98.1562H937.5C937.5 85.1354 930.99 78.625 917.969 78.625H878.906C865.885 78.625 859.375 85.1354 859.375 98.1562C859.375 111.177 865.885 117.688 878.906 117.688H917.969C983.073 117.688 1015.62 150.24 1015.62 215.344C1015.62 280.448 983.073 313 917.969 313H878.906C813.802 313 781.25 280.448 781.25 215.344H859.375C859.375 228.365 865.885 234.875 878.906 234.875H917.969C930.99 234.875 937.5 228.365 937.5 215.344C937.5 202.323 930.99 195.812 917.969 195.812H878.906C813.802 195.812 781.25 163.26 781.25 98.1562C781.25 33.0521 813.802 0.5 878.906 0.5H917.969ZM1132.81 195.812V313H1054.69V0.5H1132.81V117.688H1210.94V0.5H1289.06V313H1210.94V195.812H1132.81ZM1328.12 0.5H1406.25V234.875H1542.97V313H1328.12V0.5ZM1639.45 71.2031L1675.78 0.5H1763.48L1678.52 166.32V313H1600.39V165.93L1515.43 0.5H1603.12L1639.45 71.2031Z"/>
</mask>
<path d="M214.844 0.5H219.844V-4.5H214.844V0.5ZM214.844 78.625V83.625H219.844V78.625H214.844ZM78.125 78.625V73.625H73.125V78.625H78.125ZM78.125 117.688H73.125V122.688H78.125V117.688ZM195.312 117.688H200.312V112.688H195.312V117.688ZM195.312 195.812V200.812H200.312V195.812H195.312ZM78.125 195.812V190.812H73.125V195.812H78.125ZM78.125 313V318H83.125V313H78.125ZM0 313H-5V318H0V313ZM0 0.5V-4.5H-5V0.5H0ZM209.844 0.5V78.625H219.844V0.5H209.844ZM214.844 73.625H78.125V83.625H214.844V73.625ZM73.125 78.625V117.688H83.125V78.625H73.125ZM78.125 122.688H195.312V112.688H78.125V122.688ZM190.312 117.688V195.812H200.312V117.688H190.312ZM195.312 190.812H78.125V200.812H195.312V190.812ZM73.125 195.812V313H83.125V195.812H73.125ZM78.125 308H0V318H78.125V308ZM5 313V0.5H-5V313H5ZM0 5.5H214.844V-4.5H0V5.5ZM253.906 0.5V-4.5H248.906V0.5H253.906ZM431.055 190.344L429.601 185.56L423.573 187.391L426.726 192.846L431.055 190.344ZM501.953 313V318H510.618L506.282 310.498L501.953 313ZM411.719 313L407.39 315.503L408.834 318H411.719V313ZM343.945 195.812L348.274 193.309L346.83 190.812H343.945V195.812ZM332.031 195.812V190.812H327.031V195.812H332.031ZM332.031 313V318H337.031V313H332.031ZM253.906 313H248.906V318H253.906V313ZM332.031 78.625V73.625H327.031V78.625H332.031ZM332.031 117.688H327.031V122.688H332.031V117.688ZM253.906 5.5H390.625V-4.5H253.906V5.5ZM390.625 5.5C422.406 5.5 445.324 13.442 460.332 28.4496C475.339 43.4572 483.281 66.3749 483.281 98.1562H493.281C493.281 64.8334 484.947 38.923 467.403 21.3785C449.858 3.83409 423.948 -4.5 390.625 -4.5V5.5ZM483.281 98.1562C483.281 122.499 478.62 141.642 469.727 155.968C460.896 170.194 447.644 180.079 429.601 185.56L432.508 195.128C452.617 189.02 467.978 177.747 478.223 161.243C488.405 144.84 493.281 123.684 493.281 98.1562H483.281ZM426.726 192.846L497.624 315.502L506.282 310.498L435.384 187.842L426.726 192.846ZM501.953 308H411.719V318H501.953V308ZM416.047 310.497L348.274 193.309L339.617 198.316L407.39 315.503L416.047 310.497ZM343.945 190.812H332.031V200.812H343.945V190.812ZM327.031 195.812V313H337.031V195.812H327.031ZM332.031 308H253.906V318H332.031V308ZM258.906 313V0.5H248.906V313H258.906ZM327.031 78.625V117.688H337.031V78.625H327.031ZM332.031 122.688H390.625V112.688H332.031V122.688ZM390.625 122.688C397.906 122.688 404.285 120.864 408.809 116.34C413.333 111.817 415.156 105.437 415.156 98.1562H405.156C405.156 103.896 403.725 107.282 401.738 109.269C399.751 111.256 396.365 112.688 390.625 112.688V122.688ZM415.156 98.1562C415.156 90.8751 413.333 84.4959 408.809 79.9723C404.285 75.4487 397.906 73.625 390.625 73.625V83.625C396.365 83.625 399.751 85.0565 401.738 87.0434C403.725 89.0302 405.156 92.4165 405.156 98.1562H415.156ZM390.625 73.625H332.031V83.625H390.625V73.625ZM605.469 234.875H600.469V239.875H605.469V234.875ZM742.188 234.875H747.188V229.875H742.188V234.875ZM742.188 313V318H747.188V313H742.188ZM527.344 313H522.344V318H527.344V313ZM527.344 0.5V-4.5H522.344V0.5H527.344ZM742.188 0.5H747.188V-4.5H742.188V0.5ZM742.188 78.625V83.625H747.188V78.625H742.188ZM605.469 78.625V73.625H600.469V78.625H605.469ZM605.469 117.688H600.469V122.688H605.469V117.688ZM722.656 117.688H727.656V112.688H722.656V117.688ZM722.656 195.812V200.812H727.656V195.812H722.656ZM605.469 195.812V190.812H600.469V195.812H605.469ZM605.469 239.875H742.188V229.875H605.469V239.875ZM737.188 234.875V313H747.188V234.875H737.188ZM742.188 308H527.344V318H742.188V308ZM532.344 313V0.5H522.344V313H532.344ZM527.344 5.5H742.188V-4.5H527.344V5.5ZM737.188 0.5V78.625H747.188V0.5H737.188ZM742.188 73.625H605.469V83.625H742.188V73.625ZM600.469 78.625V117.688H610.469V78.625H600.469ZM605.469 122.688H722.656V112.688H605.469V122.688ZM717.656 117.688V195.812H727.656V117.688H717.656ZM722.656 190.812H605.469V200.812H722.656V190.812ZM600.469 195.812V234.875H610.469V195.812H600.469ZM1015.62 98.1562V103.156H1020.62V98.1562H1015.62ZM937.5 98.1562H932.5V103.156H937.5V98.1562ZM781.25 215.344V210.344H776.25V215.344H781.25ZM859.375 215.344H864.375V210.344H859.375V215.344ZM917.969 5.5C949.75 5.5 972.668 13.442 987.675 28.4496C1002.68 43.4572 1010.62 66.3749 1010.62 98.1562H1020.62C1020.62 64.8334 1012.29 38.923 994.746 21.3785C977.202 3.83409 951.292 -4.5 917.969 -4.5V5.5ZM1015.62 93.1562H937.5V103.156H1015.62V93.1562ZM942.5 98.1562C942.5 90.8751 940.676 84.4959 936.153 79.9723C931.629 75.4487 925.25 73.625 917.969 73.625V83.625C923.708 83.625 927.095 85.0565 929.082 87.0434C931.068 89.0302 932.5 92.4165 932.5 98.1562H942.5ZM917.969 73.625H878.906V83.625H917.969V73.625ZM878.906 73.625C871.625 73.625 865.246 75.4487 860.722 79.9723C856.199 84.4959 854.375 90.8751 854.375 98.1562H864.375C864.375 92.4165 865.807 89.0302 867.793 87.0434C869.78 85.0565 873.167 83.625 878.906 83.625V73.625ZM854.375 98.1562C854.375 105.437 856.199 111.817 860.722 116.34C865.246 120.864 871.625 122.688 878.906 122.688V112.688C873.167 112.688 869.78 111.256 867.793 109.269C865.807 107.282 864.375 103.896 864.375 98.1562H854.375ZM878.906 122.688H917.969V112.688H878.906V122.688ZM917.969 122.688C949.75 122.688 972.668 130.629 987.675 145.637C1002.68 160.645 1010.62 183.562 1010.62 215.344H1020.62C1020.62 182.021 1012.29 156.11 994.746 138.566C977.202 121.022 951.292 112.688 917.969 112.688V122.688ZM1010.62 215.344C1010.62 247.125 1002.68 270.043 987.675 285.05C972.668 300.058 949.75 308 917.969 308V318C951.292 318 977.202 309.666 994.746 292.121C1012.29 274.577 1020.62 248.667 1020.62 215.344H1010.62ZM917.969 308H878.906V318H917.969V308ZM878.906 308C847.125 308 824.207 300.058 809.2 285.05C794.192 270.043 786.25 247.125 786.25 215.344H776.25C776.25 248.667 784.584 274.577 802.129 292.121C819.673 309.666 845.583 318 878.906 318V308ZM781.25 220.344H859.375V210.344H781.25V220.344ZM854.375 215.344C854.375 222.625 856.199 229.004 860.722 233.528C865.246 238.051 871.625 239.875 878.906 239.875V229.875C873.167 229.875 869.78 228.443 867.793 226.457C865.807 224.47 864.375 221.083 864.375 215.344H854.375ZM878.906 239.875H917.969V229.875H878.906V239.875ZM917.969 239.875C925.25 239.875 931.629 238.051 936.153 233.528C940.676 229.004 942.5 222.625 942.5 215.344H932.5C932.5 221.083 931.068 224.47 929.082 226.457C927.095 228.443 923.708 229.875 917.969 229.875V239.875ZM942.5 215.344C942.5 208.063 940.676 201.683 936.153 197.16C931.629 192.636 925.25 190.812 917.969 190.812V200.812C923.708 200.812 927.095 202.244 929.082 204.231C931.068 206.218 932.5 209.604 932.5 215.344H942.5ZM917.969 190.812H878.906V200.812H917.969V190.812ZM878.906 190.812C847.125 190.812 824.207 182.871 809.2 167.863C794.192 152.855 786.25 129.938 786.25 98.1562H776.25C776.25 131.479 784.584 157.39 802.129 174.934C819.673 192.478 845.583 200.812 878.906 200.812V190.812ZM786.25 98.1562C786.25 66.3749 794.192 43.4572 809.2 28.4496C824.207 13.442 847.125 5.5 878.906 5.5V-4.5C845.583 -4.5 819.673 3.83409 802.129 21.3785C784.584 38.923 776.25 64.8334 776.25 98.1562H786.25ZM878.906 5.5H917.969V-4.5H878.906V5.5ZM1132.81 195.812V190.812H1127.81V195.812H1132.81ZM1132.81 313V318H1137.81V313H1132.81ZM1054.69 313H1049.69V318H1054.69V313ZM1054.69 0.5V-4.5H1049.69V0.5H1054.69ZM1132.81 0.5H1137.81V-4.5H1132.81V0.5ZM1132.81 117.688H1127.81V122.688H1132.81V117.688ZM1210.94 117.688V122.688H1215.94V117.688H1210.94ZM1210.94 0.5V-4.5H1205.94V0.5H1210.94ZM1289.06 0.5H1294.06V-4.5H1289.06V0.5ZM1289.06 313V318H1294.06V313H1289.06ZM1210.94 313H1205.94V318H1210.94V313ZM1210.94 195.812H1215.94V190.812H1210.94V195.812ZM1127.81 195.812V313H1137.81V195.812H1127.81ZM1132.81 308H1054.69V318H1132.81V308ZM1059.69 313V0.5H1049.69V313H1059.69ZM1054.69 5.5H1132.81V-4.5H1054.69V5.5ZM1127.81 0.5V117.688H1137.81V0.5H1127.81ZM1132.81 122.688H1210.94V112.688H1132.81V122.688ZM1215.94 117.688V0.5H1205.94V117.688H1215.94ZM1210.94 5.5H1289.06V-4.5H1210.94V5.5ZM1284.06 0.5V313H1294.06V0.5H1284.06ZM1289.06 308H1210.94V318H1289.06V308ZM1215.94 313V195.812H1205.94V313H1215.94ZM1210.94 190.812H1132.81V200.812H1210.94V190.812ZM1328.12 0.5V-4.5H1323.12V0.5H1328.12ZM1406.25 0.5H1411.25V-4.5H1406.25V0.5ZM1406.25 234.875H1401.25V239.875H1406.25V234.875ZM1542.97 234.875H1547.97V229.875H1542.97V234.875ZM1542.97 313V318H1547.97V313H1542.97ZM1328.12 313H1323.12V318H1328.12V313ZM1328.12 5.5H1406.25V-4.5H1328.12V5.5ZM1401.25 0.5V234.875H1411.25V0.5H1401.25ZM1406.25 239.875H1542.97V229.875H1406.25V239.875ZM1537.97 234.875V313H1547.97V234.875H1537.97ZM1542.97 308H1328.12V318H1542.97V308ZM1333.12 313V0.5H1323.12V313H1333.12ZM1639.45 71.2031L1635.01 73.4882L1639.45 82.1437L1643.9 73.4882L1639.45 71.2031ZM1675.78 0.5V-4.5H1672.73L1671.33 -1.78508L1675.78 0.5ZM1763.48 0.5L1767.93 2.77999L1771.66 -4.5H1763.48V0.5ZM1678.52 166.32L1674.07 164.04L1673.52 165.114V166.32H1678.52ZM1678.52 313V318H1683.52V313H1678.52ZM1600.39 313H1595.39V318H1600.39V313ZM1600.39 165.93H1605.39V164.721L1604.84 163.645L1600.39 165.93ZM1515.43 0.5V-4.5H1507.24L1510.98 2.78425L1515.43 0.5ZM1603.12 0.5L1607.57 -1.78508L1606.18 -4.5H1603.12V0.5ZM1643.9 73.4882L1680.23 2.78508L1671.33 -1.78508L1635.01 68.9181L1643.9 73.4882ZM1675.78 5.5H1763.48V-4.5H1675.78V5.5ZM1759.03 -1.77999L1674.07 164.04L1682.97 168.6L1767.93 2.77999L1759.03 -1.77999ZM1673.52 166.32V313H1683.52V166.32H1673.52ZM1678.52 308H1600.39V318H1678.52V308ZM1605.39 313V165.93H1595.39V313H1605.39ZM1604.84 163.645L1519.88 -1.78425L1510.98 2.78425L1595.94 168.214L1604.84 163.645ZM1515.43 5.5H1603.12V-4.5H1515.43V5.5ZM1598.68 2.78508L1635.01 73.4882L1643.9 68.9181L1607.57 -1.78508L1598.68 2.78508Z" fill="#EE5564" mask="url(#path-1-outside-1_182_277)"/>
</svg>
