<svg width="1421" height="235" viewBox="0 0 1421 235" fill="none" xmlns="http://www.w3.org/2000/svg">
<path d="M58.5938 147.109V235H0V0.625H58.5938V88.5156H117.188V0.625H175.781V235H117.188V147.109H58.5938ZM307.178 147.109L292.969 94.2285L278.76 147.109H307.178ZM322.852 205.703H263.086L255.176 235H194.678L257.52 0.625H328.418L391.26 235H330.762L322.852 205.703ZM468.75 124.99V235H410.156V0.625H469.629L512.695 82.6562L555.762 0.625H615.234V235H556.641V124.99L512.695 208.779L468.75 124.99ZM644.531 0.625H747.07C795.898 0.625 820.312 25.0391 820.312 73.8672C820.312 122.695 795.898 147.109 747.07 147.109H703.125V235H644.531V0.625ZM703.125 59.2188V88.5156H747.07C756.836 88.5156 761.719 83.6328 761.719 73.8672C761.719 64.1016 756.836 59.2188 747.07 59.2188H703.125ZM908.203 176.406H1010.74V235H849.609V0.625H1010.74V59.2188H908.203V88.5156H996.094V147.109H908.203V176.406ZM1040.04 0.625H1142.58C1191.41 0.625 1215.82 25.0391 1215.82 73.8672C1215.82 111.27 1201.51 134.316 1172.9 143.008L1226.07 235H1158.4L1107.57 147.109H1098.63V235H1040.04V0.625ZM1098.63 59.2188V88.5156H1142.58C1152.34 88.5156 1157.23 83.6328 1157.23 73.8672C1157.23 64.1016 1152.34 59.2188 1142.58 59.2188H1098.63ZM1347.66 0.625C1396.48 0.625 1420.9 25.0391 1420.9 73.8672H1362.3C1362.3 64.1016 1357.42 59.2188 1347.66 59.2188H1318.36C1308.59 59.2188 1303.71 64.1016 1303.71 73.8672C1303.71 83.6328 1308.59 88.5156 1318.36 88.5156H1347.66C1396.48 88.5156 1420.9 112.93 1420.9 161.758C1420.9 210.586 1396.48 235 1347.66 235H1318.36C1269.53 235 1245.12 210.586 1245.12 161.758H1303.71C1303.71 171.523 1308.59 176.406 1318.36 176.406H1347.66C1357.42 176.406 1362.3 171.523 1362.3 161.758C1362.3 151.992 1357.42 147.109 1347.66 147.109H1318.36C1269.53 147.109 1245.12 122.695 1245.12 73.8672C1245.12 25.0391 1269.53 0.625 1318.36 0.625H1347.66Z" fill="white"/>
</svg>
