<svg width="1177" height="235" viewBox="0 0 1177 235" fill="none" xmlns="http://www.w3.org/2000/svg">
<path d="M102.539 0.625C151.367 0.625 175.781 25.0391 175.781 73.8672H117.188C117.188 64.1016 112.305 59.2188 102.539 59.2188H73.2422C63.4766 59.2188 58.5938 64.1016 58.5938 73.8672C58.5938 83.6328 63.4766 88.5156 73.2422 88.5156H102.539C151.367 88.5156 175.781 112.93 175.781 161.758C175.781 210.586 151.367 235 102.539 235H73.2422C24.4141 235 0 210.586 0 161.758H58.5938C58.5938 171.523 63.4766 176.406 73.2422 176.406H102.539C112.305 176.406 117.188 171.523 117.188 161.758C117.188 151.992 112.305 147.109 102.539 147.109H73.2422C24.4141 147.109 0 122.695 0 73.8672C0 25.0391 24.4141 0.625 73.2422 0.625H102.539ZM307.178 147.109L292.969 94.2285L278.76 147.109H307.178ZM322.852 205.703H263.086L255.176 235H194.678L257.52 0.625H328.418L391.26 235H330.762L322.852 205.703ZM513.867 0.625H574.365L511.523 235H440.625L377.783 0.625H438.281L476.074 141.396L513.867 0.625ZM710.449 73.8672C710.449 64.1016 705.566 59.2188 695.801 59.2188H666.504C656.738 59.2188 651.855 64.1016 651.855 73.8672V161.758C651.855 171.523 656.738 176.406 666.504 176.406H695.801C705.566 176.406 710.449 171.523 710.449 161.758V73.8672ZM695.801 0.625C744.629 0.625 769.043 25.0391 769.043 73.8672V161.758C769.043 210.586 744.629 235 695.801 235H666.504C617.676 235 593.262 210.586 593.262 161.758V73.8672C593.262 25.0391 617.676 0.625 666.504 0.625H695.801ZM798.34 0.625H900.879C949.707 0.625 974.121 25.0391 974.121 73.8672C974.121 111.27 959.814 134.316 931.201 143.008L984.375 235H916.699L865.869 147.109H856.934V235H798.34V0.625ZM856.934 59.2188V88.5156H900.879C910.645 88.5156 915.527 83.6328 915.527 73.8672C915.527 64.1016 910.645 59.2188 900.879 59.2188H856.934ZM1083.98 53.6523L1111.23 0.625H1177L1113.28 124.99V235H1054.69V124.697L990.967 0.625H1056.74L1083.98 53.6523Z" fill="white"/>
</svg>
